<?xml version="1.0" ?><svg id="Bookshelf" viewBox="0 0 64 64" xmlns="http://www.w3.org/2000/svg"><circle cx="15.06" cy="30.59" r="1.25"/><circle cx="15.06" cy="25.99" r="1.25"/><circle cx="15.06" cy="21.39" r="1.25"/><path d="M54.21,38.92h-.88a2.92,2.92,0,0,0,.78-.86,2.81,2.81,0,0,0,.28-2.12l-5.63-21h0l-.66-2.43a2.78,2.78,0,0,0-3.41-2L39.22,12a3.13,3.13,0,0,0-.6.24,2.76,2.76,0,0,0-2.25-1.16H30.71a2.74,2.74,0,0,0-1.79.66,2.78,2.78,0,0,0-1.79-.66H21.47a2.78,2.78,0,0,0-1.79.66,2.74,2.74,0,0,0-1.79-.66H12.23a2.79,2.79,0,0,0-2.78,2.79V38.13a2.75,2.75,0,0,0,.13.81A2.78,2.78,0,0,0,7,41.7V45a2.79,2.79,0,0,0,2.79,2.78h1.33v3.14a2.67,2.67,0,0,0,2.67,2.66c1.52,0,2.12-1.29,2.56-2.24L18,47.78H46l1.7,3.65c.4.86,1,2.15,2.52,2.15a2.67,2.67,0,0,0,2.67-2.66V47.78h1.33A2.79,2.79,0,0,0,57,45V41.7A2.79,2.79,0,0,0,54.21,38.92Zm-2.66-5.87-7,1.88L40.09,18.28l7-1.87Zm.91,3.41a.78.78,0,0,1-.56,1l-5.47,1.47a.77.77,0,0,1-1-.56l-.4-1.47,7-1.87ZM37.15,34.6H29.92V17.37h7.23Zm-9.23,0H20.68V17.37h7.24Zm-9.24,0H11.45V17.37h7.23Zm-7.23,3.53V36.6h7.23v1.53a.78.78,0,0,1-.79.79H12.23A.78.78,0,0,1,11.45,38.13Zm9.23,0V36.6h7.24v1.53a.79.79,0,0,1-.79.79H21.47A.79.79,0,0,1,20.68,38.13Zm9.24,0V36.6h7.23v1.53a.78.78,0,0,1-.78.79H30.71A.78.78,0,0,1,29.92,38.13Zm9.23,0V22.5l3.73,13.91h0l.66,2.44a.25.25,0,0,0,0,.07H39A3,3,0,0,0,39.15,38.13Zm.59-24.22h0l5.47-1.46a.78.78,0,0,1,1,.55l.4,1.47-7,1.88-.4-1.47A.79.79,0,0,1,39.74,13.91Zm-9-.85h5.66a.77.77,0,0,1,.78.79v1.52H29.92V13.85A.79.79,0,0,1,30.71,13.06Zm-9.24,0h5.66a.78.78,0,0,1,.79.79v1.52H20.68V13.85A.79.79,0,0,1,21.47,13.06Zm-9.24,0h5.66a.79.79,0,0,1,.79.79v1.52H11.45V13.85A.77.77,0,0,1,12.23,13.06ZM14.5,50.59c-.37.79-.52,1-.71,1a.66.66,0,0,1-.67-.66V47.78h2.69Zm36.38.33a.66.66,0,0,1-.67.66c-.19,0-.34-.2-.75-1.08l-1.27-2.72h2.69ZM55,45a.78.78,0,0,1-.79.78H9.79A.78.78,0,0,1,9,45V41.7a.78.78,0,0,1,.79-.78H54.21a.78.78,0,0,1,.79.78Z"/><circle cx="24.3" cy="30.59" r="1.25"/><circle cx="24.3" cy="25.99" r="1.25"/><circle cx="24.3" cy="21.39" r="1.25"/><circle cx="33.54" cy="30.59" r="1.25"/><circle cx="33.54" cy="25.99" r="1.25"/><circle cx="33.54" cy="21.39" r="1.25"/><path d="M46.69,28.9a1.25,1.25,0,1,0,.64,2.42h0a1.25,1.25,0,0,0-.64-2.42Z"/><path d="M44.61,26h0a1.25,1.25,0,1,0,.89-1.53A1.25,1.25,0,0,0,44.61,26Z"/><path d="M43.42,21.55a1.25,1.25,0,0,0,1.53.88h0a1.25,1.25,0,0,0,.89-1.53h0a1.25,1.25,0,0,0-2.42.65Z"/></svg>